<mxfile host="app.diagrams.net" modified="2023-08-03T11:28:44.202Z" agent="Mozilla/5.0 (Macintosh; Intel Mac OS X 10_15_7) AppleWebKit/537.36 (KHTML, like Gecko) Chrome/115.0.0.0 Safari/537.36" etag="7cAErXgeHaugcCPP00Vp" version="21.6.6" type="github">
  <diagram name="Page-1" id="Rq1oSXePgIImz6ynmF_V">
    <mxGraphModel dx="1140" dy="668" grid="1" gridSize="10" guides="1" tooltips="1" connect="1" arrows="1" fold="1" page="1" pageScale="1" pageWidth="827" pageHeight="1169" math="0" shadow="0">
      <root>
        <mxCell id="0" />
        <mxCell id="1" parent="0" />
        <mxCell id="qoMidcwhRHB_6XK8gQTd-25" value="" style="rounded=0;whiteSpace=wrap;html=1;" parent="1" vertex="1">
          <mxGeometry x="40" y="390" width="860" height="150" as="geometry" />
        </mxCell>
        <mxCell id="qoMidcwhRHB_6XK8gQTd-24" value="" style="rounded=0;whiteSpace=wrap;html=1;" parent="1" vertex="1">
          <mxGeometry x="40" y="50" width="860" height="230" as="geometry" />
        </mxCell>
        <mxCell id="qoMidcwhRHB_6XK8gQTd-2" value="网络 network: network1" style="text;html=1;strokeColor=#6c8ebf;fillColor=#dae8fc;align=center;verticalAlign=middle;whiteSpace=wrap;rounded=0;" parent="1" vertex="1">
          <mxGeometry x="40" y="50" width="860" height="30" as="geometry" />
        </mxCell>
        <mxCell id="qoMidcwhRHB_6XK8gQTd-7" value="network1" style="edgeStyle=orthogonalEdgeStyle;rounded=0;orthogonalLoop=1;jettySize=auto;html=1;" parent="1" source="qoMidcwhRHB_6XK8gQTd-3" target="qoMidcwhRHB_6XK8gQTd-4" edge="1">
          <mxGeometry relative="1" as="geometry" />
        </mxCell>
        <mxCell id="qoMidcwhRHB_6XK8gQTd-3" value="&lt;b&gt;express&lt;/b&gt;" style="rounded=0;whiteSpace=wrap;html=1;" parent="1" vertex="1">
          <mxGeometry x="280" y="130" width="120" height="90" as="geometry" />
        </mxCell>
        <mxCell id="qoMidcwhRHB_6XK8gQTd-4" value="" style="rounded=0;whiteSpace=wrap;html=1;" parent="1" vertex="1">
          <mxGeometry x="480" y="110" width="200" height="130" as="geometry" />
        </mxCell>
        <mxCell id="qoMidcwhRHB_6XK8gQTd-6" value="network1" style="edgeStyle=orthogonalEdgeStyle;rounded=0;orthogonalLoop=1;jettySize=auto;html=1;" parent="1" source="qoMidcwhRHB_6XK8gQTd-5" target="qoMidcwhRHB_6XK8gQTd-3" edge="1">
          <mxGeometry relative="1" as="geometry" />
        </mxCell>
        <mxCell id="qoMidcwhRHB_6XK8gQTd-33" style="edgeStyle=orthogonalEdgeStyle;rounded=0;orthogonalLoop=1;jettySize=auto;html=1;" parent="1" source="qoMidcwhRHB_6XK8gQTd-5" target="qoMidcwhRHB_6XK8gQTd-20" edge="1">
          <mxGeometry relative="1" as="geometry">
            <Array as="points">
              <mxPoint x="140" y="250" />
              <mxPoint x="380" y="250" />
            </Array>
          </mxGeometry>
        </mxCell>
        <mxCell id="qoMidcwhRHB_6XK8gQTd-5" value="&lt;b&gt;nginx&lt;/b&gt;" style="rounded=0;whiteSpace=wrap;html=1;" parent="1" vertex="1">
          <mxGeometry x="80" y="130" width="120" height="90" as="geometry" />
        </mxCell>
        <mxCell id="qoMidcwhRHB_6XK8gQTd-8" value="docker container 1" style="text;html=1;strokeColor=#666666;fillColor=#f5f5f5;align=center;verticalAlign=middle;whiteSpace=wrap;rounded=0;fontColor=#333333;" parent="1" vertex="1">
          <mxGeometry x="80" y="130" width="120" height="30" as="geometry" />
        </mxCell>
        <mxCell id="qoMidcwhRHB_6XK8gQTd-9" value="docker container 2" style="text;html=1;strokeColor=#666666;fillColor=#f5f5f5;align=center;verticalAlign=middle;whiteSpace=wrap;rounded=0;fontColor=#333333;" parent="1" vertex="1">
          <mxGeometry x="280" y="130" width="120" height="30" as="geometry" />
        </mxCell>
        <mxCell id="qoMidcwhRHB_6XK8gQTd-10" value="docker container 3:&lt;b&gt; postgres&lt;/b&gt;" style="text;html=1;strokeColor=#666666;fillColor=#f5f5f5;align=center;verticalAlign=middle;whiteSpace=wrap;rounded=0;fontColor=#333333;" parent="1" vertex="1">
          <mxGeometry x="480" y="110" width="200" height="30" as="geometry" />
        </mxCell>
        <mxCell id="qoMidcwhRHB_6XK8gQTd-18" value="port: 5432" style="text;html=1;strokeColor=none;fillColor=none;align=center;verticalAlign=middle;whiteSpace=wrap;rounded=0;" parent="1" vertex="1">
          <mxGeometry x="550" y="240" width="60" height="30" as="geometry" />
        </mxCell>
        <mxCell id="qoMidcwhRHB_6XK8gQTd-19" value="port: 3000" style="text;html=1;strokeColor=none;fillColor=none;align=center;verticalAlign=middle;whiteSpace=wrap;rounded=0;" parent="1" vertex="1">
          <mxGeometry x="310" y="220" width="60" height="30" as="geometry" />
        </mxCell>
        <mxCell id="qoMidcwhRHB_6XK8gQTd-20" value="port: 8080" style="text;html=1;strokeColor=#d6b656;fillColor=#fff2cc;align=center;verticalAlign=middle;whiteSpace=wrap;rounded=0;" parent="1" vertex="1">
          <mxGeometry x="350" y="280" width="60" height="30" as="geometry" />
        </mxCell>
        <mxCell id="qoMidcwhRHB_6XK8gQTd-22" value="db-data" style="shape=cylinder3;whiteSpace=wrap;html=1;boundedLbl=1;backgroundOutline=1;size=15;" parent="1" vertex="1">
          <mxGeometry x="610" y="150" width="60" height="80" as="geometry" />
        </mxCell>
        <mxCell id="qoMidcwhRHB_6XK8gQTd-23" value="db-data" style="shape=cylinder3;whiteSpace=wrap;html=1;boundedLbl=1;backgroundOutline=1;size=15;" parent="1" vertex="1">
          <mxGeometry x="610" y="430" width="60" height="80" as="geometry" />
        </mxCell>
        <mxCell id="qoMidcwhRHB_6XK8gQTd-26" value="host os: 本地或云" style="text;html=1;strokeColor=#6c8ebf;fillColor=#dae8fc;align=center;verticalAlign=middle;whiteSpace=wrap;rounded=0;" parent="1" vertex="1">
          <mxGeometry x="320" y="455" width="120" height="30" as="geometry" />
        </mxCell>
        <mxCell id="qoMidcwhRHB_6XK8gQTd-29" value="port: 8080" style="text;html=1;strokeColor=#d6b656;fillColor=#fff2cc;align=center;verticalAlign=middle;whiteSpace=wrap;rounded=0;" parent="1" vertex="1">
          <mxGeometry x="350" y="360" width="60" height="30" as="geometry" />
        </mxCell>
        <mxCell id="qoMidcwhRHB_6XK8gQTd-36" value="" style="endArrow=classic;html=1;rounded=0;exitX=0.5;exitY=0;exitDx=0;exitDy=0;entryX=0.5;entryY=1;entryDx=0;entryDy=0;" parent="1" source="qoMidcwhRHB_6XK8gQTd-29" target="qoMidcwhRHB_6XK8gQTd-20" edge="1">
          <mxGeometry width="50" height="50" relative="1" as="geometry">
            <mxPoint x="380" y="350" as="sourcePoint" />
            <mxPoint x="430" y="300" as="targetPoint" />
          </mxGeometry>
        </mxCell>
        <mxCell id="qoMidcwhRHB_6XK8gQTd-37" value="端口映射" style="edgeLabel;html=1;align=center;verticalAlign=middle;resizable=0;points=[];" parent="qoMidcwhRHB_6XK8gQTd-36" vertex="1" connectable="0">
          <mxGeometry x="-0.08" relative="1" as="geometry">
            <mxPoint as="offset" />
          </mxGeometry>
        </mxCell>
        <mxCell id="zyPuyZSCgjz0Q2XKNJ21-1" value="" style="endArrow=classic;startArrow=classic;html=1;rounded=0;fillColor=#f8cecc;strokeColor=#b85450;" parent="1" source="qoMidcwhRHB_6XK8gQTd-23" edge="1">
          <mxGeometry width="50" height="50" relative="1" as="geometry">
            <mxPoint x="590" y="280" as="sourcePoint" />
            <mxPoint x="640" y="230" as="targetPoint" />
          </mxGeometry>
        </mxCell>
        <mxCell id="zyPuyZSCgjz0Q2XKNJ21-2" value="volumn 数据卷" style="edgeLabel;html=1;align=center;verticalAlign=middle;resizable=0;points=[];" parent="zyPuyZSCgjz0Q2XKNJ21-1" vertex="1" connectable="0">
          <mxGeometry x="-0.0858" y="-2" relative="1" as="geometry">
            <mxPoint as="offset" />
          </mxGeometry>
        </mxCell>
        <mxCell id="BhiGjs_FQ3WCAp6PtL0d-4" value="" style="rounded=0;whiteSpace=wrap;html=1;" vertex="1" parent="1">
          <mxGeometry x="690" y="110" width="200" height="130" as="geometry" />
        </mxCell>
        <mxCell id="BhiGjs_FQ3WCAp6PtL0d-3" value="docker container 4:&lt;b&gt;&amp;nbsp;redis&lt;/b&gt;" style="text;html=1;strokeColor=#666666;fillColor=#f5f5f5;align=center;verticalAlign=middle;whiteSpace=wrap;rounded=0;fontColor=#333333;" vertex="1" parent="1">
          <mxGeometry x="690" y="110" width="200" height="30" as="geometry" />
        </mxCell>
        <mxCell id="BhiGjs_FQ3WCAp6PtL0d-5" value="redis-data" style="shape=cylinder3;whiteSpace=wrap;html=1;boundedLbl=1;backgroundOutline=1;size=15;" vertex="1" parent="1">
          <mxGeometry x="820" y="150" width="60" height="80" as="geometry" />
        </mxCell>
        <mxCell id="BhiGjs_FQ3WCAp6PtL0d-6" value="redis-data" style="shape=cylinder3;whiteSpace=wrap;html=1;boundedLbl=1;backgroundOutline=1;size=15;" vertex="1" parent="1">
          <mxGeometry x="820" y="430" width="60" height="80" as="geometry" />
        </mxCell>
        <mxCell id="BhiGjs_FQ3WCAp6PtL0d-7" value="" style="endArrow=classic;startArrow=classic;html=1;rounded=0;fillColor=#f8cecc;strokeColor=#b85450;" edge="1" parent="1">
          <mxGeometry width="50" height="50" relative="1" as="geometry">
            <mxPoint x="849.44" y="430" as="sourcePoint" />
            <mxPoint x="849.44" y="230" as="targetPoint" />
          </mxGeometry>
        </mxCell>
        <mxCell id="BhiGjs_FQ3WCAp6PtL0d-8" value="volumn 数据卷" style="edgeLabel;html=1;align=center;verticalAlign=middle;resizable=0;points=[];" vertex="1" connectable="0" parent="BhiGjs_FQ3WCAp6PtL0d-7">
          <mxGeometry x="-0.0858" y="-2" relative="1" as="geometry">
            <mxPoint as="offset" />
          </mxGeometry>
        </mxCell>
        <mxCell id="BhiGjs_FQ3WCAp6PtL0d-9" value="" style="endArrow=classic;html=1;rounded=0;entryX=0.5;entryY=0;entryDx=0;entryDy=0;exitX=0.5;exitY=0;exitDx=0;exitDy=0;" edge="1" parent="1" source="qoMidcwhRHB_6XK8gQTd-9" target="BhiGjs_FQ3WCAp6PtL0d-3">
          <mxGeometry width="50" height="50" relative="1" as="geometry">
            <mxPoint x="400" y="170" as="sourcePoint" />
            <mxPoint x="450" y="120" as="targetPoint" />
            <Array as="points">
              <mxPoint x="340" y="90" />
              <mxPoint x="790" y="90" />
            </Array>
          </mxGeometry>
        </mxCell>
        <mxCell id="BhiGjs_FQ3WCAp6PtL0d-10" value="network1" style="edgeLabel;html=1;align=center;verticalAlign=middle;resizable=0;points=[];" vertex="1" connectable="0" parent="BhiGjs_FQ3WCAp6PtL0d-9">
          <mxGeometry x="0.0959" y="1" relative="1" as="geometry">
            <mxPoint x="-1" as="offset" />
          </mxGeometry>
        </mxCell>
        <mxCell id="BhiGjs_FQ3WCAp6PtL0d-12" value="nginx.conf" style="shape=document;whiteSpace=wrap;html=1;boundedLbl=1;" vertex="1" parent="1">
          <mxGeometry x="80" y="420" width="120" height="80" as="geometry" />
        </mxCell>
        <mxCell id="BhiGjs_FQ3WCAp6PtL0d-13" value="" style="endArrow=classic;startArrow=classic;html=1;rounded=0;fillColor=#f8cecc;strokeColor=#b85450;" edge="1" parent="1">
          <mxGeometry width="50" height="50" relative="1" as="geometry">
            <mxPoint x="139.44" y="420" as="sourcePoint" />
            <mxPoint x="139.44" y="220" as="targetPoint" />
          </mxGeometry>
        </mxCell>
        <mxCell id="BhiGjs_FQ3WCAp6PtL0d-14" value="volumn 数据卷" style="edgeLabel;html=1;align=center;verticalAlign=middle;resizable=0;points=[];" vertex="1" connectable="0" parent="BhiGjs_FQ3WCAp6PtL0d-13">
          <mxGeometry x="-0.0858" y="-2" relative="1" as="geometry">
            <mxPoint as="offset" />
          </mxGeometry>
        </mxCell>
        <mxCell id="BhiGjs_FQ3WCAp6PtL0d-15" value="" style="shape=image;verticalLabelPosition=bottom;labelBackgroundColor=default;verticalAlign=top;aspect=fixed;imageAspect=0;image=data:image/png,iVBORw0KGgoAAAANSUhEUgAAAEgAAABICAYAAABV7bNHAAAACXBIWXMAABYlAAAWJQFJUiTwAAAIkUlEQVR4nO2c228U1x3HP3NmZr1r765vGBsbyqUQCGBCuN8qJU6hgqhSKtFGilQpT+2/0L73f2heq0SolehFbeokFaUBxM3EyIRwMVAwNmB8Xa937dnZmTnTBzNmoaxn9gYW2e+DH+wz53fO9/zO+Z3f5VhxXdelirwQr3oAix1VgnxQJcgHVYJ8UCXIB1WCfFAlyAfaqxBqWRa2beM4Do7jIKXEdV28K5miKCiKghACVVVRVRVN09B1/aWPVXlZF0XTNMlms1iWRbEiFUVB13VCoRA1NTVlHmEemZUkSEpJJpMhk8k8Q4oQAiHEvJZ4GpMLT6M87ZJSIqV8OnBFIRwOEw6HEaJyJ0VFCHJdF8MwMAxj/ne52+V5MgrpN3dbeohEIkQikaL7XQhlJ8g0TWZnZ+cn4J0f5V5lKeX8OQZzC1BbW1v2rVdWgmZmZshkMsDcgHVdr6j6wxxRlmXNL0g4HKaurq5s/ZeFIMdxSKfT2LYNgK7raNrLNZC2bWNZFgCaphGNRlFVteR+SybItm1SqRRSypemNfmQq01CCGKxWMkLVRJBtm0zPT2N67qoqkooFCppMOVCNpvFcRwURSEej5dEUtFL7TgOqVRq0ZEDEAqFUFUV13VJpVLzB3kxKFqDkskktm2XTI4LjKbH6b57ij/c/BJdKHy84X0Ort5PS10zCsWbbk+TNE2jvr6+qD6KIsizVkKIkszq+OwkFx710X3vDFcSgwybaaQCK2pibG1cyeHVP2J3+1s0RxqLlmGaJlLKoq1bwQSZpkk6nQagpqamqAM5lZ3h0vBVTj34hstjt7g7O86obT7TZqkWZm3tEra3vME7K3ayva2TulCkYFlSSkxzru9oNFrwghZEkOu6TE1NIaUsypTbjk3f6A3ODffRO3KTa8mH3M+mFvxmTSjGpoYVbF+6gb0dW9nSsh5NFCj3yRVACEFDQ0NBN+6CCJqdncUwjIK3lulY3E8+4Jvhq/SMXOPi+G0GzBS2K/0/BjRFsKYmzp6Wdexq3cy2ZZ2sirejq8G9e2+rRSIRamtrA38XmCApJYlEAgi+tUzHYmxmnOvjd7jw+Fu+etDLkJnGcIuzKhFFZVVNjEMrdrBn2RbebF7L0tqmQETlbrXGxsbAR0NggjztCWK1HOmQyCS5lxyiZ/gq3QPn6Uk/DjSgoNgT7+DIqr3sautkVX0HDeF6VGXhSXtWrRAtCkzQ5OQkruv6as+sleHxzChnH1yme+AsXyfuYlcooBJC8G7zGo6sPsC+9rdpjbYQ0fJvfU+LFEWhqakpkIxABHmWK8jZc2aoh0+v/5OTYzdJSjvQIEpFs9Dpat3ELze+z96ObQu29c6ioBYtkDnIZrMAvs6f5Vj87c5JX3IiagjHlWQDEhhRVBACw7Fe+PcJaXFy5BpRvYYdbZ0LnkmqqiKlJJvNlo8gz0v2JUg6GHY2LzkRRfDbbR/yzoodhITGmUd9/Pn2KS5M3M3b50+XbeHohoOsrm/n66Feftd7jOwL2k1Ii7SVwZKOL0GWZc3PyQ++BHkxZC80ujBc8u1XTRF0RJfQtXI3m5t/iFAUltQ1UafVYnz3d65MDf3fNyGh8Xbret5buZu6UAShCD658QWjRvKFVwQ352c+eGFez/P3SwT4EuTFeEoPYShE9FqawnF0dU5sW90S3lu5kxnbIHHlrwwaiWe+UBVBYyhKYzgGQGMkTkSLAMmSRuIRZNu2L0G+s/Y84XLEewWg5CywArRHWzi8eh8frXuXei38THvtOUdVAUQJzut8P0/mEsTLD0xQJYJgtnSwXUlHrJVfbDjEz1buIqZWPmzizaUsBHmx3kpkDAbTI/x3aghdUVlV386vth7lQMs6GtXK5ry8ueRmRvLBl6DcbGe5cX6oj+P9JxidTVCj6mxqXsOvt31IZ0MH9aJyWVRvLkHuyIEJqgSmjSn+cfc8n938EtOx0ITKwR/s5OcbD/NGvA1RgUXJRVkIqjT60yN03znN8Vsn53/30YafcGjNfpbXLXmFI5uDr5lXFKWiWmS7khvJR/zp2ucsj7dxYNlmwqrOxxuPIKVDLBKvmOwgx4avBhWyX4tFUlr0TQ3x+95j9CcGsRybtrpmjq7vYm/HW2WXV8i56kuQZxIrXQQyYZucHu3nk77j3E8NI12XNfXLWR5d+lzL0sfhzSXI1cW3hed/BTGJpSJpm/xl4DzH+0/wMD2Cpqho4qn/F8SVCILcugE/BCaoHBokAfeJVufz2hKWwWe3/s1XAxd4PDP+XAcubpHRyFx4cykLQV5gvnQNcjGsWabMFFlpM2lMk8imX9jy3swEx26e4D+DvYzOJHBcB9OxmMhMY9hZRIlr5c0lSNLBt4Wu6yiKMl/ItPDBlj/NZ7uSh+lxTg9+g+M49E/e5/Lorbw9XZq8R/hGN2l7hv3LtmDYWU7c72HMmHphuGNO+tOf+eAVY3nVan4IFA/Sdf2ZLGXedkIlooWoF9oLY0KGK/nNpU+JXP4jSOkbvD8zdpuLY7dRFe1JwCwfNXNRxageRhcLbxvP/wpa7xjoougF6f2cO13V+WBtF10tG6hfIHdlOFbgzEYWMFzbl5yu1o18sPbHvhkObw5B0+UVC9qfe3iZzwfOcmryexC0hyLSPmaSe1Pfo7RPyYnD4W/514NeBrOvaeIQSks9DyQf0Dt8lZ6R77g4fuf1Sz1DmYoXxq5z7tGVgooXNjYsZ8fSN9nXsZXOxVy8ANXyl0AoZwHV+Yd9fDHwGhVQeaiW4PnAcRymp6eRUi66Ik54So4Qgng8XnTNdNEhV1VVicViKIqC4zjz+fvFgNwy4FgsVlJBebWQ3AfVpwg+qD5m8UH1OZQPqg/qfFB9kumD6qNeP5mv4t/jVJ+Fv0Z45cULix1VgnxQJcgHVYJ8UCXIB1WCfFAlyAf/A3v8rjnfaZPCAAAAAElFTkSuQmCC;" vertex="1" parent="1">
          <mxGeometry x="122" y="184" width="36" height="36" as="geometry" />
        </mxCell>
        <mxCell id="BhiGjs_FQ3WCAp6PtL0d-16" value="port: 6379" style="text;html=1;strokeColor=none;fillColor=none;align=center;verticalAlign=middle;whiteSpace=wrap;rounded=0;" vertex="1" parent="1">
          <mxGeometry x="760" y="240" width="60" height="30" as="geometry" />
        </mxCell>
        <mxCell id="BhiGjs_FQ3WCAp6PtL0d-17" value="" style="shape=image;verticalLabelPosition=bottom;labelBackgroundColor=default;verticalAlign=top;aspect=fixed;imageAspect=0;image=data:image/png,iVBORw0KGgoAAAANSUhEUgAAAEgAAABICAYAAABV7bNHAAAACXBIWXMAABYlAAAWJQFJUiTwAAAKhklEQVR4nO2ca1BU5xnHf+eyyy7sslkizlBLRCGAFzTDxBHTgIqo0QQcL6M2aarNZNJv6efmk9N2pk0/NZ9ymWkzE9vYGjF0wkW8oVZEQUU7U029C4oBBuSyy97OntMP5mxAhHMOrAid/X1kz3nf5/m/t+d93+cgaJqmkWBMxGdtwHQnIZABCYEMSAhkQEIgAxICGZAQyAB5KiuLRCIoikI0GiUajaKqKpqmoYdigiAgCAKiKCJJEpIkIcsyNpttKs0cgfC0A8VQKEQ4HCYSiTDRqgRBwGazYbfbSUpKirOFBnU/DYFUVSUYDBIMBkeIIooioijGeoneY4aj9yi9d6mqiqqqPxgsCDgcDhwOB6L49GeIuAqkaRqBQIBAIBD72/Dh8rgYVsodPix1nE4nTqdzwuWaIW4ChUIhhoaGYg7o80e8W1lV1dg8Bo8aIDk5+akNvbgI5Pf7CQaDwCODbTbbU+/+qqoSiURiDeJwOEhJSYl7PZMSKBqN4vP5UBQFAJvNhixP6cKIoihEIhEAZFnG5XIhSVLcyp+wQIqiMDg4iKqqU9ZrxmJ4bxJFEbfbHbeGmpBAiqIwMDCApmlIkoTdbo+LMZMlHA4TjUYRBIHU1NS4iGS5yaPRKIODg9NOHAC73Y4kSWiaxuDgYGwinwyWJfb5fKiqGhMnOTl50kbEG70n+Xw+PB7PpMqy1IP8fj+KoiCK4rTqOY9jt9sRRRFFUfD7/ZMqy7RAoVAotpQ/y72RWXQbg8EgoVBowuWYEkjTNIaGhmIVP6vVygr6ygowNDQ04X2gKU8DgUBsCZ3qOGcy6JG8qqojtj9WMBRoeOEzYWg9jm6z3shWMRRIn3ckSZoRQ+tx9M0y/OCLpfeNHtALnUlD63F02+MuUCgUQtO02DnOTEW3X9M0yyvauF6Hw2GAuG7+nhW6D7pPZhl33Oi7ZKsChUIh7t2/z8mTJ9n7xd4Rv5WtLeP1jRt58cUXY8cT4XCYTz75lCNHj/Lqqz9h29atZGdnj1l+a2srX+zdS29PLxtf38jGDRtwu93j2iRJEpFIJOaTWcYUSD9D1o9GzdLe3k5tbR01tbV0d3dz9+7dEb/39ffT2NhIcXExP3vrLTIzM5EkidLSUpqamqiursHlcrFl82YyMjJGld/T08MXe/dSX3+Y0tWrWbxoEU6n09Au/ZhX3/mbXZHHFEg/47Ey97S1tfF1VRUHDlTy8OFDVqwo4he7d5PiSkEQBAJDAa5cvUJT01kOVh5EURR++d57zJ49m/z8PLZv386fPvqIhoYGcrJzSE9PH7U4HKqvp6Wlhby8PF577TWys7NNLyC6QIqiTF4gfSdstvcEg0FONzZSW1tLOBxmy5bNlL/xBou+b2FBEAgGg9y6dYusrCyqq2s4cuQIC/Lz2bZtG7Iss3JlCdeuX+P48QaOHj1KRkYGS5YUxOxpvXSJqqp/4nQ4qSgvp6hoOQ6Hw5R9w32xsss3FMhsD7p37x5nGs/Q39/PmtJSfv722+Tk5Ix4xuFwsHDhQrxeLzabjQMHKqmtq6OsrAyPx0NaWhpbt2yh87tOWltbmT17NnPm/AiPx0NbWxuff/457W1tlJeXU1JSzKxZs0w7OtwXKwKN6b0edZrtQa2tl7h2/Ro5OTls3LhhlDjDycjIoKS4mCVLCrjynyvcvHkzVl9OTg5r15bhTfPSeKaR06dP09nZSX19PbW1dRQUFFBRUUFWVpZpJ3V0X6xE1GMKNPy204hoNMrFixfp7uomPz+fxYsXG76TlpbGvHnzCIXDIwQCKCkpYcOGDfgGfXy5bx/Hjh3n4MGv8Xq9vPnmT8nOnj+h0EP3xcrGdcwhZqWQ/v5+rt+4jsPh4Mdz5iBJMoODPsP3UlNTCQaDXL78byoqKmITZ0pKCqWrV9Pe1s6f//IX/nW6kZTkZD744NcUFhZO+pAuLgJZIRgMEo2qtN+7x29++zt+/4cPDd/RNA1FUZBlmf7+/lFGv/DCC5SVlXH16lUuXLxIaelqtm7ZYhjvxJsxBRIEwbTSj57TRlw5m8Vut3Pr9q1R80IoFKKjo4Pbd24TCAQ4d66Z27fvsGBB/qRPM63EdYYCaZpmWGBSUhKiKJGVNZfy8nJWFK0wbYAoCiQnJ49ari9cuEBNbQ2RiMLLL7/MpUuX+OrAV/zq/fdJT083Xf5wrMyrOmMKpAdVZgRyu92keb10dXWRmZnJqlUrDSsOBoN0dXXR0dExKmhra2vjeEMDd+/cZdWqlaxbu45/7N/PsWPHWLRwEevXryMtLc2kiz+gC2Ql+B3zSX2VMLMkJiUlkZuXiyDAjRs3ePDggeE7HR0P+Oabav76ty/p7OyMGd/X10ddXR0tzS3k5uayY/sOVq4sYffuXciSzP6v9tPc0sLg4KBZH2MMzxswi6FAZuehpUuW8Nxzz3HhwgXOnj077q65r6+P5uZmqmtquH//HnPnzv3+FiLKuXPN1NTWoaGxfv16CgsLcTqdFC1fTnn5G1y/dp1Dhw5x+/YdyyeEui9xEUjf35g1YsGCBSxauIjOzk6+qa7mzJkzdHV1jYhaFUWhs7OTU6dOUV1dTW9vD+vWriUvLw9RFLl58yZVVVU8fPiQkuJiVqwowmZ7ZIfNZmPnzp0UFhZy+fJlmpqa6O7uNu3ocF+sHP5Je/bs2fPEHyQplgAly/KY85A+f3g8HtxuF99910lDQwNnz57DZrPhSHLQ399HT28v7W1t1NfX8+W+fVy9cpVly5bx7rvvkpqais/n4+OPP6GxsZFXXlnBtm3bRhx5CIKAx+MhIyOD8+fP8+23/yXN62X+/PkjHB7rOEPTNCKRCIIg4HK5TAs0rpQ2my12S2lG9eXLl+P3+xkYGKD53Dk+/PCPIw0WBGyyzPPPp7FpUwXvvPMOmZmZhEIhDh8+TG1dHfPmZbF582YKCgqeWEdRURFr1qxh376/U1tXR2ZmJsuWLTOcePWebPXiYVyv7Xa7JYHg0TYhJyeHlpYWTpw8RWVlZey39FnPU1ZWxqZNm3hp6VJcLhfBYJDz58/z6WefYbPJ7Nq1i5eWLh23jp07dvDgwQNOnDjBgcpKvF4vubm5476jC2Q1hjLM7ujt7UXTtO9jndGt9KSwX1EUAoEAfr+f/oGB2N9lScLlcpGamorD4UAQhNi1Und3N6qmMTs9nZSUlHFDi2g0Sk9PDz6/n2SnE6/XG8sw0y84h6OqKqFQCEEQLIcHhgINDQ0RCATGzOSYbskLTxJIHwVOp9OyvYYRkx7hPp5AOVNQVTU2vKwcrukYCiSKYuzM1+qB93RAt9npdE7o6srUG3rh+nnuTEFRlFhOgZmD/SdhSiBBEGJjd3hm6XRGv72AR/PkRHOpTfe5pKSk2BieCUNNt9HhcEwqh9rSoExJSUGWZVRVtXxDOZWEw2FUVUWW5UnnTlvOco1GowwMDIzIU5xO6Eu6KIqkpqZO+trc8rQuSRJutxtBEIhGo9OqJw1PA3a73XHJKUgkkhuQ+BTBgMTHLAYkPocyIPFBnQGJTzINSHzUa1T3VP57nMRn4f+HzNzc3ikiIZABCYEMSAhkQEIgAxICGZAQyID/ARQ6e3QNuR6XAAAAAElFTkSuQmCC;" vertex="1" parent="1">
          <mxGeometry x="322" y="184" width="36" height="36" as="geometry" />
        </mxCell>
        <mxCell id="BhiGjs_FQ3WCAp6PtL0d-18" value="" style="shape=image;verticalLabelPosition=bottom;labelBackgroundColor=default;verticalAlign=top;aspect=fixed;imageAspect=0;image=data:image/png,iVBORw0KGgoAAAANSUhEUgAAAEgAAABICAYAAABV7bNHAAAACXBIWXMAABYlAAAWJQFJUiTwAAANXklEQVR4nO2cS2xUV5rHf+feer9crvIL/MCAsTEvEzDQ7UaKpruzSmbGPVI0ZCJNo1FmM0hRzzbKggXKanYRmk2QiCY0ojWLRLJQjwb1oHQ3PSmCg43tCsbYgG38Lrvez3vvLJxb2ODyvWVMEo3qL1lWVZ065/v+55zvnO9xS2iaplFBSUg/tAA/dlQIMkCFIANUCDJAhSADVAgyQIUgA1QIMkCFIANYfohB8/k8hUIBRVFQFAVVVdE0Df1SL4RACIEkSciyjCzLWCwWrFbr9y6r+L5cjWw2Sy6XI5/Ps9UhhRBYrVZsNht2u32bJSwx5qskSFVVMpkMmUxmHSmSJCFJUnGV6CtmLfQVpa8uVVVRVfWZ4ELgcDhwOBxI0quzFK+EIE3TSKfTpNPp4ntrt8vzZJTT79ptqcPpdOJ0Orfc72bYdoKy2SypVKqogG4/tnuWVVUt2jFYnQCXy7XtW29bCUomk2QyGWBVYKvV+kqXP6wSlc/nixPicDhwu93b1v+2EKQoColEgkKhAIDVasVi+X4PyEKhQD6fB8BiseDxeJBl+aX7fWmCCoUC8XgcVVW/t1VTCmtXkyRJeL3el56olyKoUCgQi8XQNA1ZlrHZbC8lzHYhl8uhKApCCHw+30uRtOWpVhSFeDz+oyMHwGazIcsymqYRj8eLhnwr2DJBiUQCVVUNyblx4wZut5uGhgbi8XjJduFwGLfbXfy7ceMGAB999BFut5vm5mZef/31DdtsBJ0kVVVJJBJbVXNrW0w/rSRJ2vBYvXDhAqFQiK6uLtra2nA6nUiSxL59+xgZGeHu3bvEYjGmp6fJ5/McOXKEzs5OXC5XsY+Wlhbcbjc2m42YzcZkIon10QSpXA66uhDhMOlIhLGxMQYGBjh58iQffvjhC7Jks1lUVd3y6VY2Qdlstjgjdrv9BYN8/vx5crkcbW1tqP4qElI11kUPD4H9QDwaJRpYod6Rp9VXRW1tLWlJ5tZMhNk5LzACtLEbB/ubBMeO7cLu83FzcJA/DA6CEOD3I2IxaqoDNOzYwfzwPcL/c5O9e/dy/vz5dfKoqko2mwXA4/GUfU8qiyBN01hZWUFV1Q2P8gsXLpBKpWg6foy8y83k4iIrWVAiGvNCsEPTEIAWEHS0NPCT5i6kguBPT0KMzEeYX9SAOSBIrWahzi+oq/MQCASxejzMKzJ/uDkOPARUagIBauvqaLdYsM3MMjY2hsvlemEl6VcASZLw+/1l3bjLMu/pdLp4hG50MoRCIXp7e4m73ISmJomsrKx+8J0809/93xGpx7a/jm/jK3w7FGZk6f5zPS2yIGAhCsNR8HpmaG/cR1dDF/94uo5rt1Sy6hMWIxEWIxFyVX5+2tzEYaeTL7/88kUlLZaie5JOp9dtZSOYNtJ658CGYYfLly/T3d2NxVLP5OTiM3I2wIFgJzvZyeTM1AbkvIh4IsHot/e53z/I4Sonx147hdPxTMmH0RVuPZkkZbPR09PD5cuXX+hDl1mfZLMwTZDuQsiyvOFF8Ny5c5w6dYq46mV+JbtpX537m0k+XWLq/qRpQeMixTexYa79921+2V3N4YYgHsuziRqPRQknEtTV1XHu3LkXvq87y2t1MYOyCdrs0tXe3s6Sb5EFESnZxuV00tScI+F7xIyYMy0oQEpkuVcYZD70F37Vvo9mv3/d526Xi+bm5pLf12XfdoKy2SyaphXjOC+DowcPMTM7x9zCErKQsUgyspABI79JILEaKvl0cJDGtjYC1dVI3xk4CUE8GmdoaKhkD7r8mqYVTzYjmDLSuVwOYFucv6PAU2BGtNHUvIddLRqRZRgaTgH9m3zTT63zIO8dW30VdLnY39nJeCzGzNwsO7Q69tMObL5t9ctjLpczdeSbIkj3kreDIAnY195Bo6+K2aVp5uRpdrdWcerwEQavwjdigALPuwY1HG3u5r032vj92OoKsQ0NkcjlENLqCtJqJeI1CWxLKb7++uuS48uyTD6fL+pkRt5NoceQ9dDoZhgdHSUWrwECm7Tq4OnTOP87dpM/h8OkUgEad9aTjE3TfciFvIFENQErvp0KtxcmSWiQHIHUchrlgYJYWm0TtEAgs0I4HKazs7Pk6HqYV9M0UyQZriA9xmNkey5evMj8/DzuaDPVmo3lklxGSIQVJmcmmU4nyIxHSaYcaPk8f9tzGvEgBLn1K8hmB589j7I4z+j4I6Qlja7WnzOdiLKSBQTU+/3ssFr53eCgodKSJBUjkkaZEsMVpHvCRqvn7Nmz5PN59lRlqPdu1nIBbTmLSGlAnIWlhwwNDxOLrLCroQ5pg3HicViJuaiuq+fp3AxT2iwF/CxhJykgoPmpVvwkEgkWFhaMVCrqYsbLN02QmdNrYWEBv9+D17PZTbWWZc1O8rl3bQKaEcgbOD7xRIq5eAq1sQVoYPVqvkiQLG4NWrx+xHKCiYkJent7DeXUddkWgvRbpxn/ZWBgAEXx4LD7N2nVypRws1xWBiJKITlOejpDm38fMhIwwU6SVOMmGHQSi40yPT29oUf/PHRdzNyoDQlam+00wujoKDbbFH6/hq2MLKgFGbtqI5VKlUwqrsxEeXxjkL8/4cIqe4qie+1NkPcQjUZNB8Z0Xcz46aYJMgO3201fXx+pZJKmxsYSrRQskrZu4GqqaMu28XXoDgVl41ldFlHuOR+SP3wMm+0nCOEBCV7fDYXJr/B6vXz88cemZYVtIqgcXL9+nWAwiGd+jtaSgw/Q0blCff2zd/x+aG+HUAgUpbTQmcUUA/9+h3/pOkbQ2QOd1Yh6jampKcbHx7dTlSIMCSonduJ2uxkbG8PjdpdcQdeGBjjeWMehupPAaptqfxUdR/ZyW7lDXpS2CwnS3MndRpYFhw/LnKzu4N7NYbq6uvjggw9My6nDjG6G9yAhRDFPbqbDTCZDKBSivcpHc1MTk1NT6z5fyKT5y+QUPz24n531x5maq+GAy8mjycfERbpEr6tQUVlW4lwbvsfh1w7isszwIBzii5F++vr6gNVQrdFWK8euyuefj1E+h1wuVwzOm+mwpqaGu3fvUuX2cODgQYYeP36hTcfhw8Qe3mfx2yFq6xs4cLSLWq8PbccOHj2a2PR0sQrBqaZago5GagIWbLYCe/bs4cSJExw6dIhgMMilS5d48803S/ah5/hlWcbhcGyqj+EW0/0vs0GmN954A7vdzqPhIeRkgvq1xgY4deIEqfEJ/nT9OqP9/YhIjsUVO99MzXI88Bp/tWvPujjPelixyLt56+Qubo0OcH14kEW3i4aOUxw9+it+9rO/w+fzbRgwW4u1dQNGME1QOadZT08P6XSagVuDHKt7jQatBhmZY/Vd7K+qgSdPaPB62blvH4u5Al/eGqDvq0c0FiRONzfjKZFGsmo2GqVWWltaqarNksxFwWolnsry1VffcOXK7/jiiy84e/bspvLpupghyNAG6UGmcsKU7777LpIk8cc/DmOdiNMdaGNcPKTT0kDoP65y+nQ3TSdOMA+MRCIsTD2ixd+OJI+zgvqCL6/DgcZuVeXR+AotmkyDfXV7zK3MMbE4wfz8NIFAwNAG6bqYybiaympEIhE0TcPhcJR1qn3++edcuXKFt99+m0KhwK1btxgYGOCtt96io6NjHfnxeJyns7NoXT3cDveTyDzvjIBHuDjhOAHpNP/1+38jGp0tftbb22vqFq1pGplMBiEEgcBmUYdVmIoHWa3WYr67nDx3b28vfr+fM2fO4PV66e/vx+v18s4779DX11e0T8vLy8zOzvLrX/8T9GsItGImZB1cAkuXQu7PIa5du0xNTY1pWXTot22z9Y6mtLXZbFsiCOD06dM8ePAAWE3cAVy6dGndtUHTNBYXF7l27T837cutwXFV4eNQiH84c6YsOXToBJmtJTClrd1uJ5lMFusEy4lLWywWvN718Y+N8lJry/VKQbB6qiiKsqVCUF1+IYTpDKtpTfX7gh5AexUQEoiDoDk2tnOaw4HSeYCRcNh00H0tdNmN7j5rUTZBzxdQbhdyuRwPH46x16/iKHH62mWZff6qsjx3HaqqFr/zSgiSJAmn0wlgOuBdDvL5PHPz89Q2tWDZwIC6NQe1ySoeh0L8629+U7aB1mXWK03MoixvXu9cj+duJzweD7/8xS+wuJ0E6+twrLERbs3JHt9eGuub+eSTT3j//fepra013XehUCjaTn2SzaKsI0kIgcvlIpFIFKsltqseMRgM8s/vvcenn35KR3s7dquV5FIEhyRRI9Xg06pYtkyRTqfLMtB63SKsHg7l1lKXrZ3dbi/u4e3eavl8ns8++4z88DBdO5voaWrkr1tb+Zvju/GKCe789rdcvXq1rOoMXUaHw7GlGuotF3FGo1EKhcIrqU/s7u4mHA4XX589e5aLFy+W3c/au1tVVdWWZNkyQYqiEIvFTNUp/hDQyZEkCZ/Pt+Ws8JYNiCzLeL1ehBAoilLM3/8YsLYM2Ov1vlTKvFJIboDKowgGqDzMYoDK41AGqDxQZ4DKI5kGqDzUazTmD/EDS5XHwv8fofLLCwaoEGSACkEGqBBkgApBBvg/pVinHy8y3QIAAAAASUVORK5CYII=;" vertex="1" parent="1">
          <mxGeometry x="520" y="161.25" width="57.5" height="57.5" as="geometry" />
        </mxCell>
        <mxCell id="BhiGjs_FQ3WCAp6PtL0d-19" value="" style="shape=image;verticalLabelPosition=bottom;labelBackgroundColor=default;verticalAlign=top;aspect=fixed;imageAspect=0;image=data:image/png,iVBORw0KGgoAAAANSUhEUgAAAEgAAABICAYAAABV7bNHAAAACXBIWXMAABYlAAAWJQFJUiTwAAAOmklEQVR4nO2caVMcSZKGn4jIq05AAiR0dvfM7M6xh9n+/1+wZru2H9Zme6x7ZqclIRBFAXXmERHu+yEpWtMjqELQh63xfpLJINPjCQ/3CA9PjKoqD7pW9uc24JeuB0Br9ABojR4ArdEDoDV6ALRGD4DW6AHQGj0AWqPk53ip954QAjFGYoyICKrKalNvjMEYg7UW5xzOOZIkIU3Tn9xW81MdNeq6pmkavPd87iuNMaRpSpZl5Hl+zxZe884fE5CIUFUVVVX9DRRrLdbaKy9ZeczHWnnUyrtEBBH53nBjKIqCoiiw9seLFD8KIFWlLEvKsrz6v4+Xyw9h3Oa5Hy/LlTqdDp1O57Ofe5PuHVBd1yyXy6sBrOLHfc+yiFzFMWgnoNvt3vvSu1dAi8WCqqqA1uA0TX9U94cWlPf+akKKoqDX693b8+8FUIyR+XxOCAGANE1Jkp82QYYQ8N4DkCQJ/X4f59ydn3tnQCEEZrMZIvKTec11+tibrLUMBoM7T9SdAIUQmE6nqCrOObIsu5Mx96WmaYgxYoxhOBzeCdJnT3WMkdls9ouDA5BlGc45VJXZbHYVyD9Hn+1Bk8mEEMK9wNEYYbkgXpyjVQkuwfYGmOEQUxSfnb5XnpQkCVtbW5/1jM8CtMpW1trbp9Xg0apEFksol2i1ROYLdD5F5gtQwaYZdApMt4/tdTGdHrbTg34XU3ThFkumrmtE5LOz260XZ13XV6n8tmcjbRr07JT44Zh49J44OiaenyHTGdI02DTDbW3hig4qEfEek1hsb4Dd3ccdPCM5eAbbjzB5Dht4VpqmVzYnSXLrCb0VIFVluVxevfimbKUxok2DqSqkqaEskckF8eiQ8O47mrdvkJMjdL7AGEs6GJAevCDbGmLzLnE6wZ8f05yeIiju0S7u1Ws4+5Jk7wk6HGK7XcgLyHMkTTHu74ezyqzee5bLJVmW3WrJ3gpQWZZXKfTGzBACspij4xEyGiHjETI+w49HyOkJ8cMxfjyCpibr9imeHlC8+oL0H/6R9NVrSHJ0dEItETkdUx4d0hwd404+oO/eku48wmxv4Xb3sbt78PgxZmsHhluQ/n08TJLk6nhSliXdbvf+Aa0eDtcsrbpGfQNNjSwWyOmIePSecPy+hXJ2hk4nmMUSUy5x1mK2H5HtPSF5/gL7+gvsyy8wL16iNkEx6PF7NM/xVUN1PobRCeWbv+LyHO31SA6ekb16Tf78FdnBc+z+Pna4hSk60Ov/jXmrpVaW5a0OuBsDWsUd59wnH64nR4TRKXE8Qs/PkPMxMp2h3mOyhGz/KcnePk4EFIIxiDUohmAt8fyc8P6QLM3AWurDNywOD5mPx5SLBdViSfQNOj4hqqEG0r239N8fsf3iHf2nzyh2d7G7+9iDA9y//Nvf2Lc6LMcYqapqYy+6NaDrllbzzdf4P/6R+rv/hbMzbFNDr0f65VcUv/0D3a9+Q9IpWpiq+KqmOTmm+fO3VH/5hvCnU9y335L/6g2aZpRv3jD75msW799RTqbUvqGKgToGliJEiaRHgUfLJWZ0ght8C/0eurtL+rs/0PsBoJXtPwqguq5R1as6zqe0/PqP1P/x78Rvv6UoF9iiIHn5mjTLyV9+QfKHf4aiBWQAN5/iVJBv/oQ/ek/952+wWU48G0O3RzUe0bw/pLm4oGpqFiGykMAsBBZBsMA2DWY2xdYNZnxKtLDs9HEKn0roK/tFhLquN8poGwFqmgbgxsPf4u1b4tvv6NYVzhhQQZoGmc8J4xH25Bg32EKzFFQJp2P86QiZTkEU2+lh0gxixEgkyXOy7SE+epqZkklFEINP2npSYSw7acpWkpK7NitFBR8988mEg2vsdM4hIjRNc3+AVqfkmwBNRiNsWRKbBgUQJZ1O6Lz9jvBf/0k4P8P0epg0x6QJWjfE6QV2MKDzT/9K/rvfY1yK7XQQ77GnJ6gIUlZQVSTBkxtLD8WnSoahsC2sRYAlEQhUxsFlVeE6QN77qzHdGdCqhrwqjV6nZQhIE3DBI2LQJNKZTGi+e4MvK4q/fIvNMkyaYrv9NtvsPCY9eI77/Ta21weXYqzFH76j/O+AO3xH6iNGIbMpwUIwgheIqqiBUpSorY0qSkgiXXv9RK7KvKuT/7rN7lpAqxrPurRotnYoe32kaYgxQBOp4pLSB8qLc/KkrSwmLsH1B2TPnlN89WvS7SGuO8A9fozJC3AOnU2wCmZZYpYlNkQSZ7BqQA3iFO+FRoSgQuDytJQmmH6fZGfnRltXgEIIdwe0Ogmv233mL15QnhwRmwYJEzREll6ompqltEsis0KaJBSdHnnToBLA1zC5wO3uYYZDKArC+0PC6Yg4mxLrikYiwVi8RrwINUojSrMq6xqDSxJMb4h7+pTi4NmNtq7Gsskpf2NA6zwo33lEZ3sHMxqRLpZIFGqEoBCASoVUIPNCTU1x8gG/LKmOj8m//h+S7S3c9iPMoI9MppRvvqOaTSl9Q4VSE2mi4iUiGFQBCzmW3BqSNMV0C9z2NtlgeKOtq7HcC6BVrXedB5m6Iq1rrComtYg6cjXU0VKLEESpUTyGKgrVfE45X5CNjsjShKzTww23sP0+EiLVdEI1n7V7H1Ua2rhjAKuQO0tq22yWWoMxliiKrStkubjZ1suxfHwz8tmAPr7tvEn12zfEoyPS+QwrikkchTq8FUqJVKo0oQUVVfAIZRTSAJn3ZD6S1DXm/AwvSh0CdeMJKogqWIM1htxAZhM61pFZi0MRNcTgkdkcf3SE7r7bCNAmlZ6NAa1TdXyEjk9wdYVgwRgSY0itxRpDqoI3Bi8QNOLFEp1Si9AAVgRbVahcDti077XGkLkWRmotGYqzlsRYjIJHqSUSJGKCR8eCOR1tZPO9ANpUokoU8D7iNaAGEutIrSHFkFtLJ3Ht2UsiVVRqFSqEIBGvgjQCCMYkJM5SWEORJnScI7MOq4aIEiSy1BaK/yhY50CCxSV3v81YaS0gY8xGpPP9p8zfHxJjpKmqNgCq4KIhs46OQm4tiaX1KlVS2n97sXgRhMuE4ByZhcIkZMaQ4jBqEFVqAlUQKhW8KKCthxqHKXLMox2Kp9fto/9+bOu0MSBVvfGB+YsX+A/vaeoaI0LwNY20SyAEwVu9XCaXgLA44+gZhcusIlfxrj2vgUFRKg34CEGUyighxjZgWyhMu6PO0gwdDjFPD0jWANo0rm4EaLWpWgfIZjk2K8iSBGMd0SUkpo0xESWg+BCxBlITSa0jc4bctLEl4ftnqyoexYtQRWmzmLSTpCjGGjIsqTEU1tBxDpdYgnNImiDm5i3JCtAmNaG1gJxzhBCuKonXqT4bEy4uMHWNuwqkSm7buOGl3QtFFSqgCZFaDI1TMhUyLNauNnBCo9+DCSKoaTeEuW2XX3IJ1V5Omo8Rv1ggZ+fY8emNY/q4b+BeAMH6iF+OT1mejkgXMzQqmW0zWHbpGF6UBKhF8QpiBS+GgFJFQ2LkcrBKlHaDKZe/a425XJqOjrFkDpxx7dkLpYyx3W2rotMpdjK50dbVWO4F0KpAtm5TFYyh1BZELoIoZLYdiL1M+YVLSC49KqojGMWrtkswtl4CYBQMBmfMVdxyxlx5jCpEIoqhiZElSp3kSLeH7feJPyi3/lCrsWxy47r2J9I0xRizNg4lz19hTj5QofjZlCREnAouRhJjSFBSa8mdxalDzeXuWpQ6RrxV4urM6VqgmbMUpgUFtDFJIl4AaxCUxiY0RY7sbOP2n5K9eE3+m99eO55VM9aqW+3OgFaQPr6l/JR6v/0dtQjzrcc04xH19BwzX8CyJFkuKSTSB1IM5vJkbgwYB4lzeBFU2uxlncEZR3ppoEGRy0xaRWWOQTpdKLrQ7+Me7VDsH5A/f0n3iy8ZfPmra8eyOn9teqe3EaAsy9YCGnz1a6TTJXn1mnJ8SjM6IXw4Rk6OkZMTqrNTxAdqY3FBsQYSY7EOHIbUOswq3iFEbb1rKe1RQ1EalLkazO5j3LNnmL0nuL0nZLv7dPb26O0/obf/hOHj3bWANr0u3whQnucsFourPsFPZbOtpwd0trYpX33BdHJBeXLS1pQP3+KP3+NPPlBNJ9RlidYldlmTh0BfwSUWBxgjl4O49BYRlgpN3sH0CkzRxQ6GZE+fkj1/SfL8Jfn+QQtne5v+YEDR65FdU0pd2W+M2fiGdeO7+eVySVmW1zYrrC7mYoyUZcni4oLFaEQ5+kB5OqI8PaU5GxMvzojjUxidYM/GZHVFz7aZapW29HJbUCYJzXAAu/u4vT3s4z2yx3t09vbp7O/R2XtK7/FjultbFJ3OVVfHp5pC4ftmhk6ns/GtxsaARITz83Og9ajr9kSrIFhXFdViQbmYU87mLCYTyvNz/OkJ/viQcPiWcHyMXpxj6xobAyJtOUOcay8Ph32SvSdkz1+QPH9JevCMYm+f/nCLzqBP0R/Q6fWuwNy0T1vdZADs7OxsfHF4q+6OlRdt0tWx8qZVa1xVVSynM8rzMdXJMeXxMfXJB+qzMXE6gapCfIOxBrIcU3RIt3conjyh++w5nacv6D7Zp7e9Q1EUV21+68CstOryuI33wC0BqSoXFxeIyK36EFdrv65rysWCcjphOZlQTaYsJ+fUF+fobIbWNcZZKDq4Xp98a4vuo136u4/obT+iOxxSFMWtW4lXk2StZXt7+1a/e+v+oLqumc/nwM1L7VNS1Stjm6ZpW4YXC5aTCXE2I9Yl1iaYToe016Po9+n2+1ftvas92W308dLq9/u3bn/56RuoLrWKVd57yrKkWi6JTYN1DptlFEVxBeUuzed3baD6RbTgfdwUboy56si/a7fsz9aCB21an06niMgvrokTvodjrWU4HH52z/RnT5FzjsFggDGmrSJe3t//EvRxG/BgMLhTQ/lDI/kaPXyKsEYPH7Os0cPnUGv08EHdGj18krlGDx/1rnvnz/EHlh4+C/9/pIe/vLBGD4DW6AHQGj0AWqMHQGv0f2QZjz1dM53iAAAAAElFTkSuQmCC;" vertex="1" parent="1">
          <mxGeometry x="740" y="163.12" width="53.75" height="53.75" as="geometry" />
        </mxCell>
      </root>
    </mxGraphModel>
  </diagram>
</mxfile>
